:SAMPLES-PER-SECOND 30
:FULLY-SPECIFIED
:DEGREES
345
root  12.2487 38.1376 14.2883 115.195 80.4905 114.351
RightUpLeg  11.6807 -5.69661 -19.7531
RightLeg  23.3088 -0.229891 -0.311394
RightFoot  -18.2863 1.12729 21.1899
RightToes  -1.74624e-010 0 -3.6325e-017
Spine  8.70455 -0.0901433 8.3604
Spine1  3.8264 2.39656 -11.4971
HEad  -16.0216 -8.09683 -4.696
LeftShoulder1  -0.535255 4.80933 -34.8296
LeftArm  -6.85311 21.9497 -36.7284
LeftForeArm  40.8179 -5.06133 -6.77416
LeftHand  -0.128016 7.49517 -4.39648
RightShoulder  -1.29704 -6.92419 31.4143
RightArm  17.6198 3.64631 43.8028
RightForeArm  10.7284 32.6248 6.59761
RightHand  -0.399164 5.56945 -4.54434
LeftUpLeg  -19.2961 3.66594 -8.80317
LeftLeg  20.2889 -1.97735 -0.449911
LeftFoot  -1.48557 -0.0800075 1.06413
LeftToes  -3.96543e-010 8.93632e-011 -2.58531e-011
346
root  13.2184 38.1208 13.87 108.441 80.9803 107.827
RightUpLeg  7.05591 -0.103348 -18.8167
RightLeg  33.4354 -2.37418 -1.92707
RightFoot  -12.3627 0.247281 24.03
RightToes  -1.74624e-010 0 -3.6325e-017
Spine  8.97188 0.432077 5.77392
Spine1  3.89101 2.50091 -11.2847
HEad  -15.7621 -7.60814 -4.17878
LeftShoulder1  -0.512017 4.7562 -34.7091
LeftArm  -6.72098 21.7718 -37.6044
LeftForeArm  41.1212 -5.51533 -6.97248
LeftHand  -0.109754 7.28909 -3.94197
RightShoulder  -1.27463 -6.85964 31.4701
RightArm  23.2344 4.37918 42.9506
RightForeArm  0.362668 25.8623 5.57324
RightHand  -0.409822 5.89427 -4.53643
LeftUpLeg  -18.1474 5.03319 -9.16479
LeftLeg  22.036 -1.94449 -0.56285
LeftFoot  -4.06384 -0.0925339 1.83055
LeftToes  -3.96543e-010 8.93632e-011 -2.58531e-011
347
root  14.2957 38.2916 13.4542 106.036 81.3433 105.502
RightUpLeg  0.660701 3.30518 -18.0979
RightLeg  44.9447 -1.77294 -2.11629
RightFoot  -0.798299 -1.25201 13.8276
RightToes  -1.74624e-010 0 -3.6325e-017
Spine  8.52922 0.289719 3.10283
Spine1  3.88706 1.81132 -9.39425
HEad  -16.1445 -5.97222 -3.55413
LeftShoulder1  -0.482052 4.69016 -34.4729
LeftArm  -6.11109 20.9214 -38.4895
LeftForeArm  39.6012 -6.4121 -7.45375
LeftHand  -0.111297 7.39341 -3.83485
RightShoulder  -1.30104 -6.90826 31.7055
RightArm  29.4944 4.14156 42.798
RightForeArm  -6.66377 20.4706 5.55005
RightHand  -0.323638 5.0218 -3.89902
LeftUpLeg  -15.8253 5.11533 -9.27383
LeftLeg  21.4259 -1.53744 -0.475993
LeftFoot  -5.68423 -0.0745309 2.18781
LeftToes  -3.96543e-010 8.93632e-011 -2.58531e-011
348
root  15.3499 38.4276 13.0953 106.48 81.7595 106.228
RightUpLeg  -5.02873 5.60601 -17.0951
RightLeg  53.3831 1.25962 1.48744
RightFoot  5.49071 -1.05754 7.17041
RightToes  -1.74624e-010 0 -3.6325e-017
Spine  8.36163 -0.147243 0.765772
Spine1  3.85412 0.850917 -7.68898
HEad  -17.2581 -4.05633 -3.07616
LeftShoulder1  -0.495764 4.70971 -34.927
LeftArm  -5.20283 18.374 -38.4644
LeftForeArm  38.908 -6.74715 -8.01422
LeftHand  -0.112094 7.93914 -2.90364
RightShoulder  -1.2525 -6.7748 31.7708
RightArm  30.4854 1.76536 42.713
RightForeArm  -3.67491 17.4766 6.78945
RightHand  -0.207261 3.7331 -2.90047
LeftUpLeg  -13.3836 4.24981 -9.0887
LeftLeg  20.8878 -0.715483 -0.246796
LeftFoot  -7.30913 -0.0308345 2.12248
LeftToes  -3.96543e-010 8.93632e-011 -2.58531e-011
349
root  16.3668 38.5121 12.8228 104.775 82.4639 105.023
RightUpLeg  -9.5885 6.99826 -15.9321
RightLeg  58.2337 4.44406 7.20113
RightFoot  2.24168 -1.28838 10.8604
RightToes  -1.74624e-010 0 -3.6325e-017
Spine  8.07804 -0.307066 -1.45309
Spine1  4.61576 0.166802 -6.31467
HEad  -18.1701 -2.49291 -2.93516
LeftShoulder1  -0.55575 4.84528 -35.2513
LeftArm  -4.90032 13.8327 -38.7687
LeftForeArm  39.1825 -5.74401 -8.31924
LeftHand  -0.0999914 7.96841 -2.37874
RightShoulder  -1.21938 -6.66105 32.0839
RightArm  31.438 -1.36826 42.4284
RightForeArm  1.90249 15.9028 7.5663
RightHand  -0.140551 3.63056 -2.07417
LeftUpLeg  -10.984 3.86384 -8.55816
LeftLeg  20.7688 0.0279006 -0.125337
LeftFoot  -9.02124 0.0103994 2.18356
LeftToes  -3.96543e-010 8.93632e-011 -2.58531e-011
